# xmcd
#
# Track frame offsets: 
#        150
#        11643
#        21565
#        32717
#        45466
#        58484
#        70764
#        82534
#        96286
#        108617
#        120322
#        132166
#        143282
#        156769
#        169434
#        179488
#        192239
#        205513
#        217626
#        228548
#        240579
#        253386
#        265945
#        278288
#        287454
#        298899
#
# Disc length: 4137 seconds
#
# Revision: 0
# Processed by: cddbd v1.5.2PL0 Copyright (c) Steve Scherf et al.
# Submitted via: ExactAudioCopy v0.99pb4
#
DISCID=7110271a
DTITLE=Various Artist - The Satintones Sing!
DYEAR=2010
DGENRE=Motown - Classic
TTITLE0=The Satintones - Motor City
TTITLE1=The Satintones - Going To The Hop
TTITLE2=The Satintones - My Beloved (with strings)
TTITLE3=The Satintones - Sugar Daddy
TTITLE4=The Satintones - Tomorrow And Always (solo lead)
TTITLE5=The Satintones - A Love That Can Never Be
TTITLE6=The Satintones - Hungry Henry
TTITLE7=The Satintones - You'd Make A Fine Son-In-Law (version 2)
TTITLE8=The Satintones - Foot Stomping Time
TTITLE9=The Satintones - Angel (slow version)
TTITLE10=The Satintones - I Know How It Feels
TTITLE11=The Satintones - My Kind Of Love
TTITLE12=The Satintones - Zing Went The Strings Of My Heart
TTITLE13=The Satintones - Faded Letter
TTITLE14=The Satintones - You Cast A Spell On Me
TTITLE15=The Satintones - Your Sweet Love
TTITLE16=The Satintones - Angel (fast version)
TTITLE17=The Satintones - You'd Make A Fine Son-In-Law (version 1)
TTITLE18=The Satintones - My Beloved (without strings)
TTITLE19=The Satintones - Tomorrow And Always (duet lead)
TTITLE20=The Satintones - Boogie Woogie Heart
TTITLE21=The Satintones - Because I Love You
TTITLE22=The Satintones - The Feeling Is So Fine
TTITLE23=The Satintones - You Can't Beat My Lovin'
TTITLE24=Chico Leverett - Solid Sender
TTITLE25=Chico Leverett - I'll Never Love Again
EXTD=
EXTT0=
EXTT1=
EXTT2=
EXTT3=
EXTT4=
EXTT5=
EXTT6=
EXTT7=
EXTT8=
EXTT9=
EXTT10=
EXTT11=
EXTT12=
EXTT13=
EXTT14=
EXTT15=
EXTT16=
EXTT17=
EXTT18=
EXTT19=
EXTT20=
EXTT21=
EXTT22=
EXTT23=
EXTT24=
EXTT25=
PLAYORDER=
